<svg id="Layer_1" data-name="Layer 1" xmlns="http://www.w3.org/2000/svg" viewBox="0 0 192 192"><defs><style>.cls-1,.cls-2{fill:none;stroke-linecap:round;stroke-linejoin:round;stroke-width:7.00px;}.cls-1{stroke:#11003A;}.cls-2{stroke:#22EE88;}</style></defs><path class="cls-1" d="M96,147.36H33a10,10,0,0,1-10-10V52.82a10,10,0,0,1,10-10h5.12"></path><path class="cls-1" d="M153.86,42.82H159a10,10,0,0,1,10,10v84.54a10,10,0,0,1-10,10H96"></path><path class="cls-1" d="M136.85,29.09l7.73-2.61c4.77-1.61,8.64.95,8.64,5.72v87.26c0,4.77-3.87,9.94-8.64,11.55L96,147.41"></path><line class="cls-1" x1="96.02" y1="42.88" x2="117.9" y2="35.49"></line><line class="cls-2" x1="139.72" y1="72.64" x2="109.51" y2="82.61"></line><line class="cls-2" x1="139.72" y1="89.81" x2="109.51" y2="99.79"></line><line class="cls-2" x1="52.32" y1="72.64" x2="82.53" y2="82.61"></line><line class="cls-2" x1="52.32" y1="89.81" x2="82.53" y2="99.79"></line><path class="cls-1" d="M96,42.88,47.46,26.48c-4.77-1.61-8.64.95-8.64,5.72v87.26c0,4.77,3.87,9.94,8.64,11.55L96,147.41"></path><line class="cls-1" x1="96" y1="146.78" x2="96" y2="43.27"></line></svg>