<svg id="Layer_1" data-name="Layer 1" xmlns="http://www.w3.org/2000/svg" viewBox="0 0 192 192"><defs><style>.cls-1,.cls-2{fill:none;stroke-linecap:round;stroke-linejoin:round;stroke-width:7.00px;}.cls-1{stroke:#22EE88;}.cls-2{stroke:#11003A;}</style></defs><circle class="cls-1" cx="96" cy="96" r="23.85"></circle><path class="cls-2" d="M155,42.33l-17.44,9.9a60.25,60.25,0,0,0-24.44-14.14V21.45a10,10,0,0,0-10-10H88.88a10,10,0,0,0-10,10V38.09A56.64,56.64,0,0,0,54.44,52.23L40,43.9a10,10,0,0,0-13.66,3.66L19.22,59.89a10,10,0,0,0,3.66,13.66l14.43,8.34a58.74,58.74,0,0,0,0,28.22l-14.43,8.34a10,10,0,0,0-3.66,13.66l7.12,12.33A10,10,0,0,0,40,148.1l14.44-8.33a60.25,60.25,0,0,0,24.44,14.14v16.64a10,10,0,0,0,10,10h14.24a10,10,0,0,0,10-10V153.91a60.25,60.25,0,0,0,24.44-14.14L152,148.1a10,10,0,0,0,13.66-3.66l7.12-12.33a10,10,0,0,0-3.66-13.66l-14.43-8.34a58.74,58.74,0,0,0,0-28.22l14.43-8.34a10,10,0,0,0,3.66-13.66l-1-1.69"></path></svg>