<svg id="Layer_1" data-name="Layer 1" xmlns="http://www.w3.org/2000/svg" viewBox="0 0 192 192"><defs><style>.cls-1,.cls-2,.cls-3{fill:none;stroke-linecap:round;stroke-width:7.00px;}.cls-1,.cls-2{stroke:#11003A;}.cls-1{stroke-miterlimit:10;}.cls-2,.cls-3{stroke-linejoin:round;}.cls-3{stroke:#22EE88;}</style></defs><line class="cls-1" x1="120.44" y1="122.75" x2="74.13" y2="122.75"></line><path class="cls-1" d="M55.2,39.23H157.5a10,10,0,0,1,10,10v63.52a10,10,0,0,1-10,10H143.61"></path><line class="cls-2" x1="96" y1="122.75" x2="96" y2="169.25"></line><path class="cls-3" d="M80.19,107H34A10,10,0,0,1,24,97V73A10,10,0,0,1,34,63H80"></path><polyline class="cls-3" points="27.14 65.73 56.28 91 80.19 70.26"></polyline><path class="cls-2" d="M26.73,122.75H80.19V63.19A22.39,22.39,0,0,0,80,60,23.94,23.94,0,0,0,56.24,39.23H53.46A26.71,26.71,0,0,0,31.73,50.38"></path><path class="cls-2" d="M153.59,24h-6.44a10,10,0,0,0-10,10v5.23"></path></svg>